%TF.GenerationSoftware,KiCad,Pcbnew,8.0.2*%
%TF.CreationDate,2024-06-08T15:24:55-07:00*%
%TF.ProjectId,heart,68656172-742e-46b6-9963-61645f706362,rev?*%
%TF.SameCoordinates,Original*%
%TF.FileFunction,Copper,L2,Bot*%
%TF.FilePolarity,Positive*%
%FSLAX46Y46*%
G04 Gerber Fmt 4.6, Leading zero omitted, Abs format (unit mm)*
G04 Created by KiCad (PCBNEW 8.0.2) date 2024-06-08 15:24:55*
%MOMM*%
%LPD*%
G01*
G04 APERTURE LIST*
%TA.AperFunction,ComponentPad*%
%ADD10R,1.800000X1.800000*%
%TD*%
%TA.AperFunction,ComponentPad*%
%ADD11C,1.800000*%
%TD*%
%TA.AperFunction,ComponentPad*%
%ADD12O,1.800000X1.710000*%
%TD*%
%TA.AperFunction,ComponentPad*%
%ADD13R,1.800000X1.710000*%
%TD*%
%TA.AperFunction,ComponentPad*%
%ADD14R,2.200000X2.200000*%
%TD*%
%TA.AperFunction,ComponentPad*%
%ADD15O,2.200000X2.200000*%
%TD*%
%TA.AperFunction,ComponentPad*%
%ADD16C,3.454400*%
%TD*%
%TA.AperFunction,ComponentPad*%
%ADD17C,1.524000*%
%TD*%
%TA.AperFunction,ViaPad*%
%ADD18C,0.600000*%
%TD*%
G04 APERTURE END LIST*
D10*
%TO.P,D4,1,K*%
%TO.N,GND*%
X169000000Y-118000000D03*
D11*
%TO.P,D4,2,A*%
%TO.N,Net-(D2-A)*%
X166460000Y-118000000D03*
%TD*%
D10*
%TO.P,D3,1,K*%
%TO.N,GND*%
X169000000Y-124750000D03*
D11*
%TO.P,D3,2,A*%
%TO.N,Net-(D2-A)*%
X166460000Y-124750000D03*
%TD*%
D10*
%TO.P,D2,1,K*%
%TO.N,GND*%
X169000000Y-131500000D03*
D11*
%TO.P,D2,2,A*%
%TO.N,Net-(D2-A)*%
X166460000Y-131500000D03*
%TD*%
D12*
%TO.P,Q1,3,B*%
%TO.N,Net-(Q1-B)*%
X160625000Y-125285000D03*
%TO.P,Q1,2,C*%
%TO.N,Net-(D2-A)*%
X160625000Y-123005000D03*
D13*
%TO.P,Q1,1,E*%
%TO.N,+5V*%
X160625000Y-120725000D03*
%TD*%
D14*
%TO.P,D1,1,K*%
%TO.N,Net-(D1-K)*%
X148500000Y-113920000D03*
D15*
%TO.P,D1,2,A*%
%TO.N,Net-(D1-A)*%
X148500000Y-124080000D03*
%TD*%
D16*
%TO.P,BT1,4*%
%TO.N,N/C*%
X118776400Y-104255000D03*
%TO.P,BT1,3*%
X118776400Y-127750000D03*
D17*
%TO.P,BT1,2,-*%
%TO.N,GND*%
X142500000Y-115050000D03*
%TO.P,BT1,1,+*%
%TO.N,+5V*%
X142500000Y-127750000D03*
%TD*%
D18*
%TO.N,GND*%
X150500000Y-110500000D03*
X159000000Y-117500000D03*
%TD*%
%TA.AperFunction,Conductor*%
%TO.N,GND*%
G36*
X170505394Y-108250972D02*
G01*
X170535721Y-108253625D01*
X170662755Y-108264739D01*
X170684035Y-108268491D01*
X170801188Y-108299882D01*
X170831369Y-108307969D01*
X170851681Y-108315362D01*
X170989915Y-108379822D01*
X171008633Y-108390629D01*
X171133582Y-108478119D01*
X171150140Y-108492013D01*
X171257986Y-108599859D01*
X171271880Y-108616417D01*
X171359370Y-108741366D01*
X171370177Y-108760084D01*
X171434637Y-108898318D01*
X171442030Y-108918630D01*
X171481507Y-109065961D01*
X171485260Y-109087246D01*
X171499028Y-109244605D01*
X171499500Y-109255413D01*
X171499500Y-134744586D01*
X171499028Y-134755394D01*
X171485260Y-134912753D01*
X171481507Y-134934038D01*
X171442030Y-135081369D01*
X171434637Y-135101681D01*
X171370177Y-135239915D01*
X171359370Y-135258633D01*
X171271880Y-135383582D01*
X171257986Y-135400140D01*
X171150140Y-135507986D01*
X171133582Y-135521880D01*
X171008633Y-135609370D01*
X170989915Y-135620177D01*
X170851681Y-135684637D01*
X170831369Y-135692030D01*
X170684038Y-135731507D01*
X170662753Y-135735260D01*
X170505395Y-135749028D01*
X170494587Y-135749500D01*
X137005413Y-135749500D01*
X136994605Y-135749028D01*
X136837246Y-135735260D01*
X136815961Y-135731507D01*
X136668630Y-135692030D01*
X136648318Y-135684637D01*
X136510084Y-135620177D01*
X136491366Y-135609370D01*
X136366417Y-135521880D01*
X136349859Y-135507986D01*
X136242013Y-135400140D01*
X136228119Y-135383582D01*
X136140629Y-135258633D01*
X136129822Y-135239915D01*
X136065362Y-135101681D01*
X136057969Y-135081369D01*
X136018492Y-134934038D01*
X136014739Y-134912752D01*
X136000972Y-134755393D01*
X136000500Y-134744586D01*
X136000500Y-131499993D01*
X165054700Y-131499993D01*
X165054700Y-131500006D01*
X165073864Y-131731297D01*
X165073866Y-131731308D01*
X165130842Y-131956300D01*
X165224075Y-132168848D01*
X165351016Y-132363147D01*
X165351019Y-132363151D01*
X165351021Y-132363153D01*
X165508216Y-132533913D01*
X165508219Y-132533915D01*
X165508222Y-132533918D01*
X165691365Y-132676464D01*
X165691371Y-132676468D01*
X165691374Y-132676470D01*
X165895497Y-132786936D01*
X166009487Y-132826068D01*
X166115015Y-132862297D01*
X166115017Y-132862297D01*
X166115019Y-132862298D01*
X166343951Y-132900500D01*
X166343952Y-132900500D01*
X166576048Y-132900500D01*
X166576049Y-132900500D01*
X166804981Y-132862298D01*
X167024503Y-132786936D01*
X167228626Y-132676470D01*
X167411784Y-132533913D01*
X167420511Y-132524432D01*
X167480394Y-132488441D01*
X167550232Y-132490538D01*
X167607850Y-132530060D01*
X167627924Y-132565080D01*
X167656645Y-132642086D01*
X167656649Y-132642093D01*
X167742809Y-132757187D01*
X167742812Y-132757190D01*
X167857906Y-132843350D01*
X167857913Y-132843354D01*
X167992620Y-132893596D01*
X167992627Y-132893598D01*
X168052155Y-132899999D01*
X168052172Y-132900000D01*
X168750000Y-132900000D01*
X168750000Y-131875277D01*
X168826306Y-131919333D01*
X168940756Y-131950000D01*
X169059244Y-131950000D01*
X169173694Y-131919333D01*
X169250000Y-131875277D01*
X169250000Y-132900000D01*
X169947828Y-132900000D01*
X169947844Y-132899999D01*
X170007372Y-132893598D01*
X170007379Y-132893596D01*
X170142086Y-132843354D01*
X170142093Y-132843350D01*
X170257187Y-132757190D01*
X170257190Y-132757187D01*
X170343350Y-132642093D01*
X170343354Y-132642086D01*
X170393596Y-132507379D01*
X170393598Y-132507372D01*
X170399999Y-132447844D01*
X170400000Y-132447827D01*
X170400000Y-131750000D01*
X169375278Y-131750000D01*
X169419333Y-131673694D01*
X169450000Y-131559244D01*
X169450000Y-131440756D01*
X169419333Y-131326306D01*
X169375278Y-131250000D01*
X170400000Y-131250000D01*
X170400000Y-130552172D01*
X170399999Y-130552155D01*
X170393598Y-130492627D01*
X170393596Y-130492620D01*
X170343354Y-130357913D01*
X170343350Y-130357906D01*
X170257190Y-130242812D01*
X170257187Y-130242809D01*
X170142093Y-130156649D01*
X170142086Y-130156645D01*
X170007379Y-130106403D01*
X170007372Y-130106401D01*
X169947844Y-130100000D01*
X169250000Y-130100000D01*
X169250000Y-131124722D01*
X169173694Y-131080667D01*
X169059244Y-131050000D01*
X168940756Y-131050000D01*
X168826306Y-131080667D01*
X168750000Y-131124722D01*
X168750000Y-130100000D01*
X168052155Y-130100000D01*
X167992627Y-130106401D01*
X167992620Y-130106403D01*
X167857913Y-130156645D01*
X167857906Y-130156649D01*
X167742812Y-130242809D01*
X167742809Y-130242812D01*
X167656649Y-130357906D01*
X167656646Y-130357911D01*
X167627924Y-130434920D01*
X167586052Y-130490853D01*
X167520588Y-130515270D01*
X167452315Y-130500418D01*
X167420514Y-130475571D01*
X167411784Y-130466087D01*
X167411779Y-130466083D01*
X167411777Y-130466081D01*
X167228634Y-130323535D01*
X167228628Y-130323531D01*
X167024504Y-130213064D01*
X167024495Y-130213061D01*
X166804984Y-130137702D01*
X166617404Y-130106401D01*
X166576049Y-130099500D01*
X166343951Y-130099500D01*
X166302596Y-130106401D01*
X166115015Y-130137702D01*
X165895504Y-130213061D01*
X165895495Y-130213064D01*
X165691371Y-130323531D01*
X165691365Y-130323535D01*
X165508222Y-130466081D01*
X165508219Y-130466084D01*
X165508216Y-130466086D01*
X165508216Y-130466087D01*
X165483791Y-130492620D01*
X165351016Y-130636852D01*
X165224075Y-130831151D01*
X165130842Y-131043699D01*
X165073866Y-131268691D01*
X165073864Y-131268702D01*
X165054700Y-131499993D01*
X136000500Y-131499993D01*
X136000500Y-127749997D01*
X141232677Y-127749997D01*
X141232677Y-127750002D01*
X141251929Y-127970062D01*
X141251930Y-127970070D01*
X141309104Y-128183445D01*
X141309105Y-128183447D01*
X141309106Y-128183450D01*
X141402466Y-128383662D01*
X141402468Y-128383666D01*
X141529170Y-128564615D01*
X141529175Y-128564621D01*
X141685378Y-128720824D01*
X141685384Y-128720829D01*
X141866333Y-128847531D01*
X141866335Y-128847532D01*
X141866338Y-128847534D01*
X142066550Y-128940894D01*
X142279932Y-128998070D01*
X142437123Y-129011822D01*
X142499998Y-129017323D01*
X142500000Y-129017323D01*
X142500002Y-129017323D01*
X142555017Y-129012509D01*
X142720068Y-128998070D01*
X142933450Y-128940894D01*
X143133662Y-128847534D01*
X143314620Y-128720826D01*
X143470826Y-128564620D01*
X143597534Y-128383662D01*
X143690894Y-128183450D01*
X143748070Y-127970068D01*
X143767323Y-127750000D01*
X143748070Y-127529932D01*
X143690894Y-127316550D01*
X143597534Y-127116339D01*
X143470826Y-126935380D01*
X143314620Y-126779174D01*
X143314616Y-126779171D01*
X143314615Y-126779170D01*
X143133666Y-126652468D01*
X143133662Y-126652466D01*
X143036421Y-126607122D01*
X142933450Y-126559106D01*
X142933447Y-126559105D01*
X142933445Y-126559104D01*
X142720070Y-126501930D01*
X142720062Y-126501929D01*
X142500002Y-126482677D01*
X142499998Y-126482677D01*
X142279937Y-126501929D01*
X142279929Y-126501930D01*
X142066554Y-126559104D01*
X142066548Y-126559107D01*
X141866340Y-126652465D01*
X141866338Y-126652466D01*
X141685377Y-126779175D01*
X141529175Y-126935377D01*
X141402466Y-127116338D01*
X141402465Y-127116340D01*
X141309107Y-127316548D01*
X141309104Y-127316554D01*
X141251930Y-127529929D01*
X141251929Y-127529937D01*
X141232677Y-127749997D01*
X136000500Y-127749997D01*
X136000500Y-124080000D01*
X146894551Y-124080000D01*
X146914317Y-124331151D01*
X146973126Y-124576110D01*
X147069533Y-124808859D01*
X147201160Y-125023653D01*
X147201161Y-125023656D01*
X147256604Y-125088571D01*
X147364776Y-125215224D01*
X147513066Y-125341875D01*
X147556343Y-125378838D01*
X147556346Y-125378839D01*
X147771140Y-125510466D01*
X147993124Y-125602414D01*
X148003889Y-125606873D01*
X148248852Y-125665683D01*
X148500000Y-125685449D01*
X148751148Y-125665683D01*
X148996111Y-125606873D01*
X149228859Y-125510466D01*
X149443659Y-125378836D01*
X149635224Y-125215224D01*
X149798836Y-125023659D01*
X149930466Y-124808859D01*
X150026873Y-124576111D01*
X150085683Y-124331148D01*
X150105449Y-124080000D01*
X150085683Y-123828852D01*
X150026873Y-123583889D01*
X149953458Y-123406649D01*
X149930466Y-123351140D01*
X149798839Y-123136346D01*
X149798838Y-123136343D01*
X149761875Y-123093066D01*
X149635224Y-122944776D01*
X149508571Y-122836604D01*
X149443656Y-122781161D01*
X149443653Y-122781160D01*
X149228859Y-122649533D01*
X148996110Y-122553126D01*
X148751151Y-122494317D01*
X148500000Y-122474551D01*
X148248848Y-122494317D01*
X148003889Y-122553126D01*
X147771140Y-122649533D01*
X147556346Y-122781160D01*
X147556343Y-122781161D01*
X147364776Y-122944776D01*
X147201161Y-123136343D01*
X147201160Y-123136346D01*
X147069533Y-123351140D01*
X146973126Y-123583889D01*
X146914317Y-123828848D01*
X146894551Y-124080000D01*
X136000500Y-124080000D01*
X136000500Y-119822135D01*
X159224500Y-119822135D01*
X159224500Y-121627870D01*
X159224501Y-121627876D01*
X159230908Y-121687483D01*
X159281202Y-121822328D01*
X159281206Y-121822335D01*
X159367452Y-121937544D01*
X159367455Y-121937547D01*
X159472075Y-122015866D01*
X159513946Y-122071799D01*
X159518930Y-122141491D01*
X159498082Y-122188017D01*
X159420675Y-122294559D01*
X159323810Y-122484664D01*
X159257877Y-122687585D01*
X159224500Y-122898320D01*
X159224500Y-123111679D01*
X159257877Y-123322414D01*
X159323810Y-123525335D01*
X159405124Y-123684920D01*
X159420673Y-123715437D01*
X159546083Y-123888049D01*
X159696951Y-124038917D01*
X159704889Y-124044684D01*
X159747553Y-124100016D01*
X159753529Y-124169629D01*
X159720922Y-124231423D01*
X159704891Y-124245313D01*
X159699785Y-124249023D01*
X159696948Y-124251085D01*
X159546085Y-124401948D01*
X159546085Y-124401949D01*
X159546083Y-124401951D01*
X159493959Y-124473694D01*
X159420673Y-124574562D01*
X159323810Y-124764664D01*
X159257877Y-124967585D01*
X159224500Y-125178320D01*
X159224500Y-125391679D01*
X159257877Y-125602414D01*
X159323810Y-125805335D01*
X159420673Y-125995437D01*
X159546083Y-126168049D01*
X159696951Y-126318917D01*
X159869563Y-126444327D01*
X159944829Y-126482677D01*
X160059664Y-126541189D01*
X160059666Y-126541189D01*
X160059669Y-126541191D01*
X160262586Y-126607123D01*
X160473320Y-126640500D01*
X160473321Y-126640500D01*
X160776679Y-126640500D01*
X160776680Y-126640500D01*
X160987414Y-126607123D01*
X161190331Y-126541191D01*
X161380437Y-126444327D01*
X161553049Y-126318917D01*
X161703917Y-126168049D01*
X161829327Y-125995437D01*
X161926191Y-125805331D01*
X161992123Y-125602414D01*
X162025500Y-125391680D01*
X162025500Y-125178320D01*
X161992123Y-124967586D01*
X161926191Y-124764669D01*
X161926189Y-124764666D01*
X161926189Y-124764664D01*
X161918714Y-124749993D01*
X165054700Y-124749993D01*
X165054700Y-124750006D01*
X165073864Y-124981297D01*
X165073866Y-124981308D01*
X165130842Y-125206300D01*
X165224075Y-125418848D01*
X165351016Y-125613147D01*
X165351019Y-125613151D01*
X165351021Y-125613153D01*
X165508216Y-125783913D01*
X165508219Y-125783915D01*
X165508222Y-125783918D01*
X165691365Y-125926464D01*
X165691371Y-125926468D01*
X165691374Y-125926470D01*
X165895497Y-126036936D01*
X166009487Y-126076068D01*
X166115015Y-126112297D01*
X166115017Y-126112297D01*
X166115019Y-126112298D01*
X166343951Y-126150500D01*
X166343952Y-126150500D01*
X166576048Y-126150500D01*
X166576049Y-126150500D01*
X166804981Y-126112298D01*
X167024503Y-126036936D01*
X167228626Y-125926470D01*
X167411784Y-125783913D01*
X167420511Y-125774432D01*
X167480394Y-125738441D01*
X167550232Y-125740538D01*
X167607850Y-125780060D01*
X167627924Y-125815080D01*
X167656645Y-125892086D01*
X167656649Y-125892093D01*
X167742809Y-126007187D01*
X167742812Y-126007190D01*
X167857906Y-126093350D01*
X167857913Y-126093354D01*
X167992620Y-126143596D01*
X167992627Y-126143598D01*
X168052155Y-126149999D01*
X168052172Y-126150000D01*
X168750000Y-126150000D01*
X168750000Y-125125277D01*
X168826306Y-125169333D01*
X168940756Y-125200000D01*
X169059244Y-125200000D01*
X169173694Y-125169333D01*
X169250000Y-125125277D01*
X169250000Y-126150000D01*
X169947828Y-126150000D01*
X169947844Y-126149999D01*
X170007372Y-126143598D01*
X170007379Y-126143596D01*
X170142086Y-126093354D01*
X170142093Y-126093350D01*
X170257187Y-126007190D01*
X170257190Y-126007187D01*
X170343350Y-125892093D01*
X170343354Y-125892086D01*
X170393596Y-125757379D01*
X170393598Y-125757372D01*
X170399999Y-125697844D01*
X170400000Y-125697827D01*
X170400000Y-125000000D01*
X169375278Y-125000000D01*
X169419333Y-124923694D01*
X169450000Y-124809244D01*
X169450000Y-124690756D01*
X169419333Y-124576306D01*
X169375278Y-124500000D01*
X170400000Y-124500000D01*
X170400000Y-123802172D01*
X170399999Y-123802155D01*
X170393598Y-123742627D01*
X170393596Y-123742620D01*
X170343354Y-123607913D01*
X170343350Y-123607906D01*
X170257190Y-123492812D01*
X170257187Y-123492809D01*
X170142093Y-123406649D01*
X170142086Y-123406645D01*
X170007379Y-123356403D01*
X170007372Y-123356401D01*
X169947844Y-123350000D01*
X169250000Y-123350000D01*
X169250000Y-124374722D01*
X169173694Y-124330667D01*
X169059244Y-124300000D01*
X168940756Y-124300000D01*
X168826306Y-124330667D01*
X168750000Y-124374722D01*
X168750000Y-123350000D01*
X168052155Y-123350000D01*
X167992627Y-123356401D01*
X167992620Y-123356403D01*
X167857913Y-123406645D01*
X167857906Y-123406649D01*
X167742812Y-123492809D01*
X167742809Y-123492812D01*
X167656649Y-123607906D01*
X167656646Y-123607911D01*
X167627924Y-123684920D01*
X167586052Y-123740853D01*
X167520588Y-123765270D01*
X167452315Y-123750418D01*
X167420514Y-123725571D01*
X167411784Y-123716087D01*
X167411779Y-123716083D01*
X167411777Y-123716081D01*
X167228634Y-123573535D01*
X167228628Y-123573531D01*
X167024504Y-123463064D01*
X167024495Y-123463061D01*
X166804984Y-123387702D01*
X166617404Y-123356401D01*
X166576049Y-123349500D01*
X166343951Y-123349500D01*
X166302596Y-123356401D01*
X166115015Y-123387702D01*
X165895504Y-123463061D01*
X165895495Y-123463064D01*
X165691371Y-123573531D01*
X165691365Y-123573535D01*
X165508222Y-123716081D01*
X165508219Y-123716084D01*
X165508216Y-123716086D01*
X165508216Y-123716087D01*
X165483791Y-123742620D01*
X165351016Y-123886852D01*
X165224075Y-124081151D01*
X165130842Y-124293699D01*
X165073866Y-124518691D01*
X165073864Y-124518702D01*
X165054700Y-124749993D01*
X161918714Y-124749993D01*
X161830215Y-124576306D01*
X161829327Y-124574563D01*
X161703917Y-124401951D01*
X161553049Y-124251083D01*
X161545112Y-124245316D01*
X161502448Y-124189989D01*
X161496469Y-124120376D01*
X161529074Y-124058580D01*
X161545111Y-124044684D01*
X161553049Y-124038917D01*
X161703917Y-123888049D01*
X161829327Y-123715437D01*
X161926191Y-123525331D01*
X161992123Y-123322414D01*
X162025500Y-123111680D01*
X162025500Y-122898320D01*
X161992123Y-122687586D01*
X161926191Y-122484669D01*
X161926189Y-122484666D01*
X161926189Y-122484664D01*
X161829326Y-122294562D01*
X161829324Y-122294559D01*
X161751916Y-122188016D01*
X161728437Y-122122211D01*
X161744262Y-122054157D01*
X161777921Y-122015868D01*
X161882546Y-121937546D01*
X161968796Y-121822331D01*
X162019091Y-121687483D01*
X162025500Y-121627873D01*
X162025499Y-119822128D01*
X162019091Y-119762517D01*
X161968796Y-119627669D01*
X161968795Y-119627668D01*
X161968793Y-119627664D01*
X161882547Y-119512455D01*
X161882544Y-119512452D01*
X161767335Y-119426206D01*
X161767328Y-119426202D01*
X161632482Y-119375908D01*
X161632483Y-119375908D01*
X161572883Y-119369501D01*
X161572881Y-119369500D01*
X161572873Y-119369500D01*
X161572864Y-119369500D01*
X159677129Y-119369500D01*
X159677123Y-119369501D01*
X159617516Y-119375908D01*
X159482671Y-119426202D01*
X159482664Y-119426206D01*
X159367455Y-119512452D01*
X159367452Y-119512455D01*
X159281206Y-119627664D01*
X159281202Y-119627671D01*
X159230908Y-119762517D01*
X159224501Y-119822116D01*
X159224501Y-119822123D01*
X159224500Y-119822135D01*
X136000500Y-119822135D01*
X136000500Y-117999993D01*
X165054700Y-117999993D01*
X165054700Y-118000006D01*
X165073864Y-118231297D01*
X165073866Y-118231308D01*
X165130842Y-118456300D01*
X165224075Y-118668848D01*
X165351016Y-118863147D01*
X165351019Y-118863151D01*
X165351021Y-118863153D01*
X165508216Y-119033913D01*
X165508219Y-119033915D01*
X165508222Y-119033918D01*
X165691365Y-119176464D01*
X165691371Y-119176468D01*
X165691374Y-119176470D01*
X165895497Y-119286936D01*
X166009487Y-119326068D01*
X166115015Y-119362297D01*
X166115017Y-119362297D01*
X166115019Y-119362298D01*
X166343951Y-119400500D01*
X166343952Y-119400500D01*
X166576048Y-119400500D01*
X166576049Y-119400500D01*
X166804981Y-119362298D01*
X167024503Y-119286936D01*
X167228626Y-119176470D01*
X167411784Y-119033913D01*
X167420511Y-119024432D01*
X167480394Y-118988441D01*
X167550232Y-118990538D01*
X167607850Y-119030060D01*
X167627924Y-119065080D01*
X167656645Y-119142086D01*
X167656649Y-119142093D01*
X167742809Y-119257187D01*
X167742812Y-119257190D01*
X167857906Y-119343350D01*
X167857913Y-119343354D01*
X167992620Y-119393596D01*
X167992627Y-119393598D01*
X168052155Y-119399999D01*
X168052172Y-119400000D01*
X168750000Y-119400000D01*
X168750000Y-118375277D01*
X168826306Y-118419333D01*
X168940756Y-118450000D01*
X169059244Y-118450000D01*
X169173694Y-118419333D01*
X169250000Y-118375277D01*
X169250000Y-119400000D01*
X169947828Y-119400000D01*
X169947844Y-119399999D01*
X170007372Y-119393598D01*
X170007379Y-119393596D01*
X170142086Y-119343354D01*
X170142093Y-119343350D01*
X170257187Y-119257190D01*
X170257190Y-119257187D01*
X170343350Y-119142093D01*
X170343354Y-119142086D01*
X170393596Y-119007379D01*
X170393598Y-119007372D01*
X170399999Y-118947844D01*
X170400000Y-118947827D01*
X170400000Y-118250000D01*
X169375278Y-118250000D01*
X169419333Y-118173694D01*
X169450000Y-118059244D01*
X169450000Y-117940756D01*
X169419333Y-117826306D01*
X169375278Y-117750000D01*
X170400000Y-117750000D01*
X170400000Y-117052172D01*
X170399999Y-117052155D01*
X170393598Y-116992627D01*
X170393596Y-116992620D01*
X170343354Y-116857913D01*
X170343350Y-116857906D01*
X170257190Y-116742812D01*
X170257187Y-116742809D01*
X170142093Y-116656649D01*
X170142086Y-116656645D01*
X170007379Y-116606403D01*
X170007372Y-116606401D01*
X169947844Y-116600000D01*
X169250000Y-116600000D01*
X169250000Y-117624722D01*
X169173694Y-117580667D01*
X169059244Y-117550000D01*
X168940756Y-117550000D01*
X168826306Y-117580667D01*
X168750000Y-117624722D01*
X168750000Y-116600000D01*
X168052155Y-116600000D01*
X167992627Y-116606401D01*
X167992620Y-116606403D01*
X167857913Y-116656645D01*
X167857906Y-116656649D01*
X167742812Y-116742809D01*
X167742809Y-116742812D01*
X167656649Y-116857906D01*
X167656646Y-116857911D01*
X167627924Y-116934920D01*
X167586052Y-116990853D01*
X167520588Y-117015270D01*
X167452315Y-117000418D01*
X167420514Y-116975571D01*
X167411784Y-116966087D01*
X167411779Y-116966083D01*
X167411777Y-116966081D01*
X167228634Y-116823535D01*
X167228628Y-116823531D01*
X167024504Y-116713064D01*
X167024495Y-116713061D01*
X166804984Y-116637702D01*
X166617404Y-116606401D01*
X166576049Y-116599500D01*
X166343951Y-116599500D01*
X166302596Y-116606401D01*
X166115015Y-116637702D01*
X165895504Y-116713061D01*
X165895495Y-116713064D01*
X165691371Y-116823531D01*
X165691365Y-116823535D01*
X165508222Y-116966081D01*
X165508219Y-116966084D01*
X165508216Y-116966086D01*
X165508216Y-116966087D01*
X165483791Y-116992620D01*
X165351016Y-117136852D01*
X165224075Y-117331151D01*
X165130842Y-117543699D01*
X165073866Y-117768691D01*
X165073864Y-117768702D01*
X165054700Y-117999993D01*
X136000500Y-117999993D01*
X136000500Y-115049999D01*
X141233179Y-115049999D01*
X141233179Y-115050000D01*
X141252424Y-115269976D01*
X141252426Y-115269986D01*
X141309575Y-115483270D01*
X141309580Y-115483284D01*
X141402898Y-115683405D01*
X141402901Y-115683411D01*
X141448258Y-115748187D01*
X141448259Y-115748188D01*
X142010504Y-115185942D01*
X142026619Y-115246081D01*
X142093498Y-115361920D01*
X142188080Y-115456502D01*
X142303919Y-115523381D01*
X142364057Y-115539494D01*
X141801810Y-116101740D01*
X141866590Y-116147099D01*
X141866592Y-116147100D01*
X142066715Y-116240419D01*
X142066729Y-116240424D01*
X142280013Y-116297573D01*
X142280023Y-116297575D01*
X142499999Y-116316821D01*
X142500001Y-116316821D01*
X142719976Y-116297575D01*
X142719986Y-116297573D01*
X142933270Y-116240424D01*
X142933284Y-116240419D01*
X143133407Y-116147100D01*
X143133417Y-116147094D01*
X143198188Y-116101741D01*
X142635942Y-115539494D01*
X142696081Y-115523381D01*
X142811920Y-115456502D01*
X142906502Y-115361920D01*
X142973381Y-115246081D01*
X142989495Y-115185942D01*
X143551741Y-115748188D01*
X143597094Y-115683417D01*
X143597100Y-115683407D01*
X143690419Y-115483284D01*
X143690424Y-115483270D01*
X143747573Y-115269986D01*
X143747575Y-115269976D01*
X143766821Y-115050000D01*
X143766821Y-115049999D01*
X143747575Y-114830023D01*
X143747573Y-114830013D01*
X143690424Y-114616729D01*
X143690420Y-114616720D01*
X143597096Y-114416586D01*
X143551741Y-114351811D01*
X143551740Y-114351810D01*
X142989494Y-114914056D01*
X142973381Y-114853919D01*
X142906502Y-114738080D01*
X142811920Y-114643498D01*
X142696081Y-114576619D01*
X142635942Y-114560505D01*
X143198188Y-113998259D01*
X143198187Y-113998258D01*
X143133411Y-113952901D01*
X143133405Y-113952898D01*
X142933284Y-113859580D01*
X142933270Y-113859575D01*
X142719986Y-113802426D01*
X142719976Y-113802424D01*
X142500001Y-113783179D01*
X142499999Y-113783179D01*
X142280023Y-113802424D01*
X142280013Y-113802426D01*
X142066729Y-113859575D01*
X142066720Y-113859579D01*
X141866590Y-113952901D01*
X141801811Y-113998258D01*
X142364057Y-114560504D01*
X142303919Y-114576619D01*
X142188080Y-114643498D01*
X142093498Y-114738080D01*
X142026619Y-114853919D01*
X142010504Y-114914057D01*
X141448258Y-114351811D01*
X141402901Y-114416590D01*
X141309579Y-114616720D01*
X141309575Y-114616729D01*
X141252426Y-114830013D01*
X141252424Y-114830023D01*
X141233179Y-115049999D01*
X136000500Y-115049999D01*
X136000500Y-112772135D01*
X146899500Y-112772135D01*
X146899500Y-115067870D01*
X146899501Y-115067876D01*
X146905908Y-115127483D01*
X146956202Y-115262328D01*
X146956206Y-115262335D01*
X147042452Y-115377544D01*
X147042455Y-115377547D01*
X147157664Y-115463793D01*
X147157671Y-115463797D01*
X147292517Y-115514091D01*
X147292516Y-115514091D01*
X147299444Y-115514835D01*
X147352127Y-115520500D01*
X149647872Y-115520499D01*
X149707483Y-115514091D01*
X149842331Y-115463796D01*
X149957546Y-115377546D01*
X150043796Y-115262331D01*
X150094091Y-115127483D01*
X150100500Y-115067873D01*
X150100499Y-112772128D01*
X150094091Y-112712517D01*
X150043796Y-112577669D01*
X150043795Y-112577668D01*
X150043793Y-112577664D01*
X149957547Y-112462455D01*
X149957544Y-112462452D01*
X149842335Y-112376206D01*
X149842328Y-112376202D01*
X149707482Y-112325908D01*
X149707483Y-112325908D01*
X149647883Y-112319501D01*
X149647881Y-112319500D01*
X149647873Y-112319500D01*
X149647864Y-112319500D01*
X147352129Y-112319500D01*
X147352123Y-112319501D01*
X147292516Y-112325908D01*
X147157671Y-112376202D01*
X147157664Y-112376206D01*
X147042455Y-112462452D01*
X147042452Y-112462455D01*
X146956206Y-112577664D01*
X146956202Y-112577671D01*
X146905908Y-112712517D01*
X146899501Y-112772116D01*
X146899501Y-112772123D01*
X146899500Y-112772135D01*
X136000500Y-112772135D01*
X136000500Y-109255413D01*
X136000972Y-109244606D01*
X136006265Y-109184108D01*
X136014739Y-109087242D01*
X136018490Y-109065966D01*
X136057969Y-108918627D01*
X136065362Y-108898318D01*
X136129823Y-108760081D01*
X136140629Y-108741366D01*
X136228119Y-108616417D01*
X136242007Y-108599865D01*
X136349865Y-108492007D01*
X136366417Y-108478119D01*
X136491366Y-108390629D01*
X136510081Y-108379823D01*
X136648320Y-108315361D01*
X136668627Y-108307969D01*
X136815966Y-108268490D01*
X136837242Y-108264739D01*
X136969885Y-108253134D01*
X136994606Y-108250972D01*
X137005413Y-108250500D01*
X137065892Y-108250500D01*
X170434108Y-108250500D01*
X170494587Y-108250500D01*
X170505394Y-108250972D01*
G37*
%TD.AperFunction*%
%TD*%
M02*
